<?xml version="1.0" standalone="no"?>
<!DOCTYPE svg PUBLIC "-//W3C//DTD SVG 20010904//EN"
 "http://www.w3.org/TR/2001/REC-SVG-20010904/DTD/svg10.dtd">
<svg version="1.0" xmlns="http://www.w3.org/2000/svg"
 width="500.000000pt" height="500.000000pt" viewBox="0 0 500.000000 500.000000"
 preserveAspectRatio="xMidYMid meet">

<g transform="translate(0.000000,500.000000) scale(0.100000,-0.100000)"
fill="#000000" stroke="none">
<path d="M0 2500 l0 -2500 2500 0 2500 0 0 2500 0 2500 -2500 0 -2500 0 0
-2500z m2851 1787 c490 -103 890 -372 1163 -781 302 -455 382 -1053 210 -1576
-45 -138 -157 -361 -242 -480 -87 -123 -309 -345 -432 -432 -52 -37 -158 -99
-235 -138 -307 -154 -603 -212 -959 -189 -626 41 -1196 422 -1481 988 -130
260 -183 477 -192 781 -6 203 6 320 52 500 150 591 622 1090 1205 1274 215 68
346 86 600 81 157 -3 217 -9 311 -28z"/>
<path d="M3020 3686 c-111 -25 -152 -55 -376 -280 -229 -229 -254 -264 -276
-389 -19 -107 15 -230 88 -315 19 -22 34 -44 34 -49 0 -11 -133 -143 -144
-143 -5 0 -24 14 -44 31 -82 72 -211 108 -320 89 -125 -22 -167 -51 -398 -283
-230 -231 -253 -264 -275 -389 -9 -50 -9 -80 -1 -124 23 -113 53 -158 205
-312 185 -186 223 -207 377 -207 98 0 110 2 175 33 62 29 93 56 281 245 182
183 215 222 245 282 32 66 34 75 34 175 0 93 -3 112 -26 161 -15 31 -44 75
-65 98 l-38 42 77 76 76 77 42 -38 c23 -21 67 -50 98 -65 49 -23 68 -26 161
-26 98 0 110 2 175 33 62 29 94 57 282 245 187 187 216 221 245 282 31 65 33
77 33 175 0 154 -21 193 -207 377 -153 151 -200 183 -308 203 -64 12 -80 12
-150 -4z m165 -226 c23 -11 92 -72 157 -137 89 -90 118 -127 127 -158 30 -109
6 -148 -228 -373 -182 -175 -232 -212 -283 -212 -41 0 -97 20 -128 47 l-31 26
90 92 c84 86 91 95 91 133 0 75 -69 127 -136 102 -16 -6 -66 -48 -111 -92 -82
-82 -82 -82 -103 -63 -45 41 -64 137 -39 202 13 36 382 408 429 433 46 25 114
25 165 0z m-1059 -1061 c77 -37 77 -40 -13 -132 -45 -45 -86 -93 -93 -106 -31
-61 27 -141 102 -141 38 0 47 7 133 90 l91 90 22 -23 c28 -30 52 -89 52 -130
0 -71 -43 -128 -236 -314 -180 -173 -232 -212 -284 -213 -70 0 -104 21 -223
139 -65 64 -127 133 -138 153 -21 41 -25 111 -8 155 13 36 382 408 429 433 46
25 114 25 166 -1z"/>
</g>
</svg>
