<?xml version="1.0" standalone="no"?>
<!DOCTYPE svg PUBLIC "-//W3C//DTD SVG 20010904//EN"
 "http://www.w3.org/TR/2001/REC-SVG-20010904/DTD/svg10.dtd">
<svg version="1.0" xmlns="http://www.w3.org/2000/svg"
 width="500.000000pt" height="500.000000pt" viewBox="0 0 500.000000 500.000000"
 preserveAspectRatio="xMidYMid meet">

<g transform="translate(0.000000,500.000000) scale(0.100000,-0.100000)"
fill="#000000" stroke="none">
<path d="M2274 4310 c-655 -83 -1221 -519 -1465 -1130 -98 -245 -134 -453
-126 -725 6 -188 19 -285 61 -439 204 -741 862 -1278 1623 -1325 436 -27 841
86 1184 329 130 92 340 302 431 430 84 119 197 342 242 480 173 526 92 1126
-215 1581 -275 409 -669 673 -1158 776 -94 19 -154 25 -311 28 -107 2 -227 0
-266 -5z m897 -620 c107 -20 163 -58 316 -212 181 -183 198 -215 198 -368 0
-98 -2 -110 -33 -175 -29 -61 -58 -95 -245 -282 -188 -188 -220 -216 -282
-245 -65 -31 -77 -33 -175 -33 -93 0 -112 3 -161 26 -31 15 -75 44 -98 65
l-42 38 -76 -77 -77 -76 38 -42 c21 -23 50 -67 65 -98 23 -49 26 -68 26 -161
0 -99 -2 -109 -34 -175 -29 -61 -62 -98 -245 -282 -187 -188 -219 -216 -281
-245 -65 -31 -77 -33 -175 -33 -153 0 -185 17 -367 197 -157 156 -194 211
-214 319 -9 50 -9 81 -1 129 22 121 47 156 276 387 229 229 270 259 393 283
106 21 243 -16 325 -89 20 -17 39 -31 44 -31 11 0 144 132 144 143 0 5 -15 27
-34 49 -74 86 -107 208 -88 318 22 122 47 156 276 386 221 222 262 253 371
280 64 16 90 16 156 4z"/>
<path d="M3020 3460 c-47 -25 -416 -397 -429 -433 -25 -65 -3 -168 44 -207 14
-12 26 -4 98 68 45 44 95 86 111 92 67 25 136 -27 136 -102 0 -38 -7 -47 -91
-133 l-90 -92 31 -26 c31 -27 87 -47 128 -47 51 0 101 37 283 212 234 225 258
264 228 373 -9 31 -38 68 -127 158 -65 65 -134 126 -157 137 -51 25 -119 25
-165 0z"/>
<path d="M1960 2400 c-47 -25 -416 -397 -429 -433 -17 -44 -13 -114 8 -155 11
-20 73 -89 138 -153 118 -117 153 -139 221 -139 52 0 102 37 283 211 232 222
258 265 229 371 -6 21 -22 51 -37 68 l-26 31 -92 -90 c-86 -84 -95 -91 -133
-91 -75 0 -133 80 -102 141 7 13 48 61 93 106 90 92 90 95 13 132 -52 26 -120
26 -166 1z"/>
</g>
</svg>
