<?xml version="1.0" standalone="no"?>
<!DOCTYPE svg PUBLIC "-//W3C//DTD SVG 20010904//EN"
 "http://www.w3.org/TR/2001/REC-SVG-20010904/DTD/svg10.dtd">
<svg version="1.0" xmlns="http://www.w3.org/2000/svg"
 width="500.000000pt" height="500.000000pt" viewBox="0 0 500.000000 500.000000"
 preserveAspectRatio="xMidYMid meet">

<g transform="translate(0.000000,500.000000) scale(0.100000,-0.100000)"
fill="#000000" stroke="none">
<path d="M0 2500 l0 -2500 2500 0 2500 0 0 2500 0 2500 -2500 0 -2500 0 0
-2500z m2734 1985 c584 -68 1112 -395 1439 -890 384 -583 431 -1342 123 -1970
-204 -414 -524 -732 -941 -931 -895 -429 -1977 -124 -2528 711 -384 583 -432
1342 -123 1970 111 225 230 390 408 560 440 424 1020 620 1622 550z"/>
<path d="M2190 4321 c-322 -57 -597 -181 -851 -385 -392 -314 -635 -769 -679
-1268 -13 -147 1 -397 30 -538 72 -354 246 -677 504 -936 152 -151 290 -250
479 -345 268 -135 505 -189 824 -189 265 0 441 31 663 117 592 228 1014 726
1150 1359 31 142 39 454 16 614 -47 325 -163 605 -356 862 -270 359 -664 609
-1105 699 -155 32 -519 37 -675 10z m1095 -644 c46 -22 90 -58 193 -160 74
-73 147 -150 162 -173 79 -113 91 -271 31 -399 -28 -62 -57 -95 -249 -288
-237 -238 -277 -267 -399 -288 -112 -20 -266 26 -338 101 l-29 30 -78 -77 -77
-77 29 -32 c81 -93 119 -220 100 -334 -21 -123 -44 -155 -279 -393 -191 -193
-224 -222 -289 -254 -126 -63 -277 -56 -392 17 -25 16 -107 91 -182 167 -177
179 -193 210 -193 368 0 103 2 114 33 180 29 63 54 91 249 283 236 232 279
262 401 283 111 20 237 -17 328 -95 l41 -35 77 78 76 77 -29 28 c-78 75 -125
231 -103 347 22 121 47 155 290 394 277 272 301 287 472 282 79 -2 105 -8 155
-30z"/>
<path d="M3034 3475 c-63 -31 -416 -384 -439 -438 -28 -67 -15 -150 32 -199
l27 -28 92 90 c81 80 95 90 127 90 70 0 117 -42 117 -105 0 -41 -23 -74 -104
-154 -73 -72 -75 -76 -58 -94 24 -28 91 -57 132 -57 19 0 53 9 75 19 49 23
429 403 445 444 15 41 12 112 -5 154 -9 21 -65 86 -128 149 -156 156 -212 179
-313 129z"/>
<path d="M1955 2399 c-50 -26 -388 -359 -422 -417 -31 -52 -35 -130 -9 -179
20 -40 248 -264 284 -280 34 -15 112 -16 149 -2 31 12 383 353 425 412 50 71
46 162 -9 228 l-26 31 -81 -80 c-45 -44 -91 -85 -103 -91 -40 -20 -88 -13
-122 18 -26 25 -31 36 -31 76 0 47 2 50 90 140 l90 91 -23 22 c-56 53 -144 65
-212 31z"/>
</g>
</svg>
